{"title":"Shagird(2011) Hindi 1CD PreDVDRip XviD MP3-TDT-=MTR=-","uid":6402483,"size":739861351,"categoryP":"video","categoryS":"movies","magnet":"?xt=urn:btih:b01af35bd001af81901270517aabac66b4058d42&amp;dn=Shagird%282011%29+Hindi+1CD+PreDVDRip+XviD+MP3-TDT-%3DMTR%3D-&amp;tr=udp%3A%2F%2Ftracker.openbittorrent.com%3A80&amp;tr=udp%3A%2F%2Fopen.demonii.com%3A1337&amp;tr=udp%3A%2F%2Ftracker.coppersurfer.tk%3A6969&amp;tr=udp%3A%2F%2Fexodus.desync.com%3A6969","seeders":0,"leechers":0,"uploader":"HDvideos","files":4,"time":1305714670,"description":"Shagird(2011) Hindi 1CD PreDVDRip XviD MP3-TDT-=MTR=-\n\nCheck out MY latest Uploads:\n &lt;a href=&quot;\nhttp://thepiratebay.se/user/HDvideos/0/7&quot; rel=&quot;nofollow&quot; target=&quot;_NEW&quot;&gt;\nhttp://thepiratebay.se/user/HDvideos/0/7&lt;/a&gt;\n\nStay updated with us....\n\nSeed after downloading....\n\nEnjoY with HDvideos..\n\nTorrent From Mastitorrents\n\nTeam Mastitorrents\n\nSay thanks if u like my posts\n\nGive ur valuable feedbacks\n\nQuality Uploads from HDvideos\n\nGeneral\nComplete name : Shagird(2011) Hindi 1CD PreDVDRip XviD MP3-TDT\nIMDB : www.imdb.com/title/tt1828289/\nFormat : AVI\nFormat/Info : Audio Video Interleave\nFile size : 699 MiB\nDuration : 2h 3mn\nOverall bit rate : 790 Kbps\nWriting application : VirtualDubMod 1.5.10.3 | www.virtualdub-fr.org || (build 2550/release)\nWriting library : VirtualDubMod build 2550/release\nSource : Pdvd @ Team ICTv .. Thnx a lot .\nRipper : KINGFISHER [TDT].\n\nVideo\nID : 0\nFormat : MPEG-4 Visual\nFormat profile : Advanced Simple@L5\nFormat settings, BVOP : Yes\nFormat settings, QPel : No\nFormat settings, GMC : No warppoints\nFormat settings, Matrix : Default (H.263)\nMuxing mode : Packed bitstream\nCodec ID : XVID\nCodec ID/Hint : XviD\nDuration : 2h 3mn\nBit rate : 653 Kbps\nWidth : 624 pixels\nHeight : 288 pixels\nDisplay aspect ratio : 2.2:1\nFrame rate : 23.976 fps\nColor space : YUV\nChroma subsampling : 4:2:0\nBit depth : 8 bits\nScan type : Progressive\nBits/(Pixel*Frame) : 0.151\nStream size : 577 MiB (83%)\nWriting library : XviD 1.2.1 (UTC 2008-12-04)\n\nAudio\nID : 1\nFormat : MPEG Audio\nFormat version : Version 1\nFormat profile : Layer 3\nMode : Joint stereo\nCodec ID : 55\nCodec ID/Hint : MP3\nDuration : 2h 3mn\nBit rate mode : Constant\nBit rate : 128 Kbps\nChannel(s) : 2 channels\nSampling rate : 48.0 KHz\nStream size : 113 MiB (16%)\nAlignment : Aligned on interleaves\nInterleave, duration : 42 ms (1.00 video frame)\nInterleave, preload duration : 504 ms\nWriting library : LAME3.98r\nEncoding settings : -m j -V 4 -q 2 -lowpass 17 -b 128\n","torrent":{"xt":"urn:btih:b01af35bd001af81901270517aabac66b4058d42","amp;dn":"Shagird%282011%29+Hindi+1CD+PreDVDRip+XviD+MP3-TDT-%3DMTR%3D-","amp;tr":["udp%3A%2F%2Ftracker.openbittorrent.com%3A80","udp%3A%2F%2Fopen.demonii.com%3A1337","udp%3A%2F%2Ftracker.coppersurfer.tk%3A6969","udp%3A%2F%2Fexodus.desync.com%3A6969"],"infoHash":"b01af35bd001af81901270517aabac66b4058d42","infoHashBuffer":{"type":"Buffer","data":[176,26,243,91,208,1,175,129,144,18,112,81,122,171,172,102,180,5,141,66]},"announce":[],"urlList":[]}}